<mxfile host="Electron" agent="Mozilla/5.0 (Windows NT 10.0; Win64; x64) AppleWebKit/537.36 (KHTML, like Gecko) draw.io/24.7.17 Chrome/128.0.6613.36 Electron/32.0.1 Safari/537.36" version="24.7.17">
  <diagram name="PÃ¡gina-1" id="ZqX82djbbonzKoHzFuoh">
    <mxGraphModel dx="686" dy="835" grid="1" gridSize="10" guides="1" tooltips="1" connect="1" arrows="1" fold="1" page="1" pageScale="1" pageWidth="827" pageHeight="1169" math="0" shadow="0">
      <root>
        <mxCell id="0" />
        <mxCell id="1" parent="0" />
        <mxCell id="MPeXkSksH1p9oDuyKx3N-1" value="SchoolClass" style="swimlane;fontStyle=1;align=center;verticalAlign=top;childLayout=stackLayout;horizontal=1;startSize=26;horizontalStack=0;resizeParent=1;resizeParentMax=0;resizeLast=0;collapsible=1;marginBottom=0;whiteSpace=wrap;html=1;" vertex="1" parent="1">
          <mxGeometry x="130" y="380" width="360" height="160" as="geometry" />
        </mxCell>
        <mxCell id="MPeXkSksH1p9oDuyKx3N-2" value="-students: list[Students]" style="text;strokeColor=none;fillColor=none;align=left;verticalAlign=top;spacingLeft=4;spacingRight=4;overflow=hidden;rotatable=0;points=[[0,0.5],[1,0.5]];portConstraint=eastwest;whiteSpace=wrap;html=1;" vertex="1" parent="MPeXkSksH1p9oDuyKx3N-1">
          <mxGeometry y="26" width="360" height="24" as="geometry" />
        </mxCell>
        <mxCell id="MPeXkSksH1p9oDuyKx3N-3" value="" style="line;strokeWidth=1;fillColor=none;align=left;verticalAlign=middle;spacingTop=-1;spacingLeft=3;spacingRight=3;rotatable=0;labelPosition=right;points=[];portConstraint=eastwest;strokeColor=inherit;" vertex="1" parent="MPeXkSksH1p9oDuyKx3N-1">
          <mxGeometry y="50" width="360" height="8" as="geometry" />
        </mxCell>
        <mxCell id="MPeXkSksH1p9oDuyKx3N-4" value="+ addStudent(student: Student): None&lt;div&gt;+ setStudents(list: list): None&lt;/div&gt;&lt;div&gt;&lt;div&gt;+ getStudents(): list&lt;/div&gt;&lt;div&gt;&lt;u&gt;+ studentsOrdenate(list: list): None&lt;/u&gt;&lt;/div&gt;&lt;div&gt;&lt;u&gt;+ studentsOrdenate(student1: Student, student2: Student): None&lt;/u&gt;&lt;br&gt;&lt;/div&gt;&lt;/div&gt;&lt;div&gt;+ __str__(): None&lt;/div&gt;" style="text;strokeColor=none;fillColor=none;align=left;verticalAlign=top;spacingLeft=4;spacingRight=4;overflow=hidden;rotatable=0;points=[[0,0.5],[1,0.5]];portConstraint=eastwest;whiteSpace=wrap;html=1;" vertex="1" parent="MPeXkSksH1p9oDuyKx3N-1">
          <mxGeometry y="58" width="360" height="102" as="geometry" />
        </mxCell>
        <mxCell id="MPeXkSksH1p9oDuyKx3N-5" value="Student" style="swimlane;fontStyle=1;align=center;verticalAlign=top;childLayout=stackLayout;horizontal=1;startSize=26;horizontalStack=0;resizeParent=1;resizeParentMax=0;resizeLast=0;collapsible=1;marginBottom=0;whiteSpace=wrap;html=1;" vertex="1" parent="1">
          <mxGeometry x="580" y="370" width="360" height="190" as="geometry" />
        </mxCell>
        <mxCell id="MPeXkSksH1p9oDuyKx3N-6" value="-name: string&lt;div&gt;-grade: float&lt;/div&gt;&lt;div&gt;-number: int&lt;/div&gt;" style="text;strokeColor=none;fillColor=none;align=left;verticalAlign=top;spacingLeft=4;spacingRight=4;overflow=hidden;rotatable=0;points=[[0,0.5],[1,0.5]];portConstraint=eastwest;whiteSpace=wrap;html=1;" vertex="1" parent="MPeXkSksH1p9oDuyKx3N-5">
          <mxGeometry y="26" width="360" height="54" as="geometry" />
        </mxCell>
        <mxCell id="MPeXkSksH1p9oDuyKx3N-7" value="" style="line;strokeWidth=1;fillColor=none;align=left;verticalAlign=middle;spacingTop=-1;spacingLeft=3;spacingRight=3;rotatable=0;labelPosition=right;points=[];portConstraint=eastwest;strokeColor=inherit;" vertex="1" parent="MPeXkSksH1p9oDuyKx3N-5">
          <mxGeometry y="80" width="360" height="8" as="geometry" />
        </mxCell>
        <mxCell id="MPeXkSksH1p9oDuyKx3N-8" value="+__eq__(other: Student): bool&lt;div&gt;+__gt__(other: Student): bool&lt;br&gt;&lt;/div&gt;&lt;div&gt;+__lt__(other: Student): bool&lt;br&gt;&lt;/div&gt;&lt;div&gt;+getName(): string&lt;br&gt;&lt;/div&gt;&lt;div&gt;+getGrade(): float&lt;br&gt;&lt;/div&gt;&lt;div&gt;+getNumber(): int&lt;br&gt;&lt;/div&gt;" style="text;strokeColor=none;fillColor=none;align=left;verticalAlign=top;spacingLeft=4;spacingRight=4;overflow=hidden;rotatable=0;points=[[0,0.5],[1,0.5]];portConstraint=eastwest;whiteSpace=wrap;html=1;" vertex="1" parent="MPeXkSksH1p9oDuyKx3N-5">
          <mxGeometry y="88" width="360" height="102" as="geometry" />
        </mxCell>
        <mxCell id="MPeXkSksH1p9oDuyKx3N-9" style="edgeStyle=orthogonalEdgeStyle;rounded=0;orthogonalLoop=1;jettySize=auto;html=1;endArrow=open;endFill=0;" edge="1" parent="1" source="MPeXkSksH1p9oDuyKx3N-4">
          <mxGeometry relative="1" as="geometry">
            <mxPoint x="580" y="489" as="targetPoint" />
          </mxGeometry>
        </mxCell>
      </root>
    </mxGraphModel>
  </diagram>
</mxfile>
